<?xml version="1.0" encoding="UTF-8"?><svg id="Layer_2" xmlns="http://www.w3.org/2000/svg" viewBox="0 0 1302.43 471.74"><g id="Layer_1-2"><path d="m46.41,462.05c-1.67,2.83-4.2,5.14-7.6,6.92-3.4,1.78-7.6,2.67-12.59,2.67s-9.18-.84-12.96-2.52c-3.78-1.68-6.8-3.99-9.05-6.92-2.03-2.64-3.28-5.61-3.77-8.91-.09-.59.4-1.12,1-1.12h8.11c.49,0,.89.36.97.84.3,1.68.97,3.33,2.01,4.94,1.21,1.88,2.95,3.43,5.2,4.65,2.25,1.22,4.98,1.83,8.17,1.83,4.16,0,7.35-1.05,9.57-3.16,2.22-2.11,3.33-4.81,3.33-8.11,0-2.83-.78-5.14-2.34-6.92s-3.49-3.18-5.78-4.2c-2.29-1.02-5.41-2.13-9.37-3.31-4.65-1.45-8.38-2.82-11.19-4.1-2.81-1.29-5.2-3.21-7.18-5.78-1.98-2.57-2.97-5.96-2.97-10.18,0-3.62.92-6.82,2.76-9.59,1.84-2.77,4.48-4.91,7.91-6.43,3.43-1.52,7.47-2.27,12.12-2.27,7.21,0,12.94,1.67,17.17,4.99,3.89,3.06,6.29,6.89,7.19,11.49.12.63-.34,1.21-.98,1.21h-8.23c-.46,0-.85-.32-.97-.77-.66-2.45-2.09-4.64-4.29-6.55-2.43-2.11-5.72-3.16-9.89-3.16-3.82,0-6.87.94-9.16,2.82-2.29,1.88-3.43,4.53-3.43,7.96,0,2.7.74,4.89,2.24,6.57,1.49,1.68,3.35,3,5.57,3.95,2.22.96,5.27,2.03,9.16,3.21,4.72,1.45,8.52,2.83,11.4,4.15,2.88,1.32,5.32,3.31,7.34,5.98,2.01,2.67,3.02,6.21,3.02,10.63,0,3.3-.83,6.36-2.5,9.19Z"/><path d="m129.09,404.91c5.45,3.03,9.73,7.27,12.85,12.7s4.68,11.58,4.68,18.44-1.56,13-4.68,18.44-7.41,9.67-12.85,12.7c-5.45,3.03-11.57,4.55-18.37,4.55s-12.96-1.52-18.47-4.55c-5.52-3.03-9.83-7.27-12.96-12.7s-4.68-11.58-4.68-18.44,1.56-13,4.68-18.44,7.44-9.67,12.96-12.7c5.52-3.03,11.67-4.55,18.47-4.55s12.92,1.52,18.37,4.55Zm-31.95,7.17c-3.99,2.21-7.11,5.37-9.37,9.49-2.26,4.12-3.38,8.95-3.38,14.48s1.13,10.28,3.38,14.43c2.25,4.15,5.38,7.33,9.37,9.54,3.99,2.21,8.52,3.31,13.58,3.31s9.49-1.12,13.48-3.36c3.99-2.24,7.11-5.42,9.37-9.54,2.25-4.12,3.38-8.91,3.38-14.38s-1.13-10.36-3.38-14.48c-2.26-4.12-5.38-7.28-9.37-9.49-3.99-2.21-8.48-3.31-13.48-3.31s-9.59,1.1-13.58,3.31Z"/><path d="m216.46,402.25v5.32c0,.55-.45,1-1,1h-30.05c-.55,0-1,.45-1,1v22.12c0,.55.45,1,1,1h25.16c.55,0,1,.45,1,1v5.02c0,.55-.45,1-1,1h-25.16c-.55,0-1,.45-1,1v29.24c0,.55-.45,1-1,1h-7.47c-.55,0-1-.45-1-1v-67.7c0-.55.45-1,1-1h39.52c.55,0,1,.45,1,1Z"/><path d="m288.16,402.25v5.32c0,.55-.45,1-1,1h-18.71c-.55,0-1,.45-1,1v60.38c0,.55-.45,1-1,1h-7.47c-.55,0-1-.45-1-1v-60.38c0-.55-.45-1-1-1h-18.71c-.55,0-1-.45-1-1v-5.32c0-.55.45-1,1-1h48.89c.55,0,1,.45,1,1Z"/><path d="m402.92,402.51l-18.09,67.7c-.12.44-.51.74-.97.74h-10.04c-.44,0-.83-.29-.96-.71l-15.79-53.01c-.28-.95-1.63-.95-1.92,0l-15.79,53.01c-.13.42-.52.71-.96.71h-10.04c-.45,0-.85-.3-.97-.74l-18.19-67.7c-.17-.64.31-1.26.97-1.26h8.42c.46,0,.87.32.97.77l13,54.78c.24,1,1.64,1.04,1.93.05l16.11-54.88c.12-.43.52-.72.96-.72h9.01c.44,0,.83.29.96.72l16.11,54.71c.29.98,1.69.95,1.93-.05l13.1-54.61c.11-.45.51-.77.97-.77h8.32c.66,0,1.14.62.97,1.26Z"/><path d="m472.18,454.83h-30.88c-.41,0-.79.26-.93.64l-5.65,14.83c-.15.39-.52.64-.93.64h-8.04c-.71,0-1.19-.71-.93-1.37l26.37-66.41c.15-.38.52-.63.93-.63h9.36c.41,0,.78.25.93.63l26.27,66.41c.26.66-.22,1.37-.93,1.37h-8.04c-.41,0-.79-.26-.93-.64l-5.65-14.83c-.15-.39-.52-.64-.93-.64Zm-2.53-8.38l-11.97-31.39c-.33-.86-1.54-.86-1.87,0l-11.97,31.39c-.25.65.23,1.36.93,1.36h23.95c.7,0,1.18-.7.93-1.36Z"/><path d="m552.91,470.51l-18.55-27.59c-.19-.28-.5-.44-.83-.44h-8.77c-.55,0-1,.45-1,1v26.47c0,.55-.45,1-1,1h-7.47c-.55,0-1-.45-1-1v-67.7c0-.55.45-1,1-1h23.14c8.32,0,14.57,1.9,18.73,5.68,4.16,3.79,6.24,8.82,6.24,15.08,0,5.67-1.66,10.23-4.99,13.69-3.05,3.17-7.36,5.25-12.92,6.23-.71.13-1.05.96-.64,1.55l17.98,25.89c.46.66-.01,1.57-.82,1.57h-8.27c-.33,0-.64-.17-.83-.44Zm-29.15-35.56c0,.55.45,1,1,1h12.84c10.75,0,16.13-4.48,16.13-13.45s-5.38-13.45-16.13-13.45h-12.84c-.55,0-1,.45-1,1v24.89Z"/><path d="m599.94,409.56v21.83c0,.55.45,1,1,1h25.89c.55,0,1,.45,1,1v4.92c0,.55-.45,1-1,1h-25.89c-.55,0-1,.45-1,1v22.32c0,.55.45,1,1,1h29.01c.55,0,1,.45,1,1v5.32c0,.55-.45,1-1,1h-38.48c-.55,0-1-.45-1-1v-67.7c0-.55.45-1,1-1h38.48c.55,0,1,.45,1,1v5.32c0,.55-.45,1-1,1h-29.01c-.55,0-1,.45-1,1Z"/><path d="m754.47,406.83c5.47,3.93,9.35,9.21,11.64,15.84.22.64-.27,1.32-.95,1.32h-7.95c-.4,0-.75-.24-.91-.61-1.89-4.33-4.82-7.8-8.8-10.42-4.16-2.73-9.26-4.1-15.3-4.1-4.79,0-9.07,1.1-12.85,3.31-3.78,2.21-6.76,5.37-8.95,9.49-2.18,4.12-3.28,8.95-3.28,14.48s1.09,10.25,3.28,14.33c2.19,4.09,5.17,7.23,8.95,9.44,3.78,2.21,8.07,3.31,12.85,3.31,6.04,0,11.13-1.37,15.3-4.1,3.98-2.61,6.91-6.09,8.8-10.42.16-.37.51-.61.91-.61h7.95c.68,0,1.18.67.95,1.32-2.29,6.63-6.17,11.91-11.64,15.84-5.83,4.19-13.22,6.28-22.17,6.28-6.87,0-12.94-1.5-18.21-4.5-5.27-3-9.38-7.18-12.33-12.56-2.95-5.37-4.42-11.48-4.42-18.34s1.47-13.08,4.42-18.49c2.95-5.4,7.06-9.61,12.33-12.61,5.27-3,11.34-4.5,18.21-4.5,8.95,0,16.34,2.09,22.17,6.28Z"/><path d="m846.73,404.91c5.45,3.03,9.73,7.27,12.85,12.7,3.12,5.44,4.68,11.58,4.68,18.44s-1.56,13-4.68,18.44c-3.12,5.44-7.41,9.67-12.85,12.7-5.45,3.03-11.57,4.55-18.37,4.55s-12.96-1.52-18.47-4.55c-5.52-3.03-9.83-7.27-12.96-12.7s-4.68-11.58-4.68-18.44,1.56-13,4.68-18.44,7.44-9.67,12.96-12.7c5.52-3.03,11.67-4.55,18.47-4.55s12.92,1.52,18.37,4.55Zm-31.95,7.17c-3.99,2.21-7.11,5.37-9.37,9.49-2.25,4.12-3.38,8.95-3.38,14.48s1.13,10.28,3.38,14.43c2.25,4.15,5.38,7.33,9.37,9.54,3.99,2.21,8.52,3.31,13.58,3.31s9.49-1.12,13.48-3.36c3.99-2.24,7.11-5.42,9.37-9.54,2.25-4.12,3.38-8.91,3.38-14.38s-1.13-10.36-3.38-14.48c-2.25-4.12-5.38-7.28-9.37-9.49-3.99-2.21-8.48-3.31-13.48-3.31s-9.59,1.1-13.58,3.31Z"/><path d="m966.04,403.44v66.51c0,.55-.45,1-1,1h-7.47c-.55,0-1-.45-1-1v-48.71c0-1.09-1.5-1.39-1.92-.39l-20.82,49.49c-.16.37-.52.61-.92.61h-7.1c-.4,0-.76-.24-.92-.61l-20.92-49.34c-.43-1-1.92-.7-1.92.39v48.55c0,.55-.45,1-1,1h-7.47c-.55,0-1-.45-1-1v-66.51c0-.55.45-1,1-1h9.69c.4,0,.75.23.91.59l24.41,54.87c.35.79,1.48.79,1.83,0l24.01-54.86c.16-.36.52-.6.92-.6h9.69c.55,0,1,.45,1,1Z"/><path d="m1006.21,443.87v26.08c0,.55-.45,1-1,1h-7.47c-.55,0-1-.45-1-1v-67.7c0-.55.45-1,1-1h22.31c8.39,0,14.67,1.86,18.84,5.59,4.16,3.72,6.24,8.82,6.24,15.27s-2.15,11.62-6.45,15.27c-4.3,3.66-10.51,5.49-18.63,5.49h-12.84c-.55,0-1,.45-1,1Zm25.44-11.97c2.53-2.31,3.8-5.57,3.8-9.79s-1.27-7.66-3.8-9.94c-2.53-2.27-6.68-3.41-12.44-3.41h-12.01c-.55,0-1,.45-1,1v24.59c0,.55.45,1,1,1h12.01c5.76,0,9.9-1.15,12.44-3.46Z"/><path d="m1113.95,454.83h-30.88c-.41,0-.79.26-.93.64l-5.65,14.83c-.15.39-.52.64-.93.64h-8.04c-.71,0-1.19-.71-.93-1.37l26.37-66.41c.15-.38.52-.63.93-.63h9.36c.41,0,.78.25.93.63l26.27,66.41c.26.66-.22,1.37-.93,1.37h-8.04c-.41,0-.79-.26-.93-.64l-5.65-14.83c-.15-.39-.52-.64-.93-.64Zm-2.53-8.38l-11.97-31.39c-.33-.86-1.54-.86-1.87,0l-11.97,31.39c-.25.65.23,1.36.93,1.36h23.95c.7,0,1.18-.7.93-1.36Z"/><path d="m1212.09,470.95h-7.95c-.33,0-.64-.16-.82-.43l-35.97-52c-.56-.81-1.82-.41-1.82.57v50.86c0,.55-.45,1-1,1h-7.47c-.55,0-1-.45-1-1v-67.7c0-.55.45-1,1-1h7.94c.33,0,.64.16.82.43l35.97,52.09c.56.81,1.82.41,1.82-.57v-50.96c0-.55.45-1,1-1h7.47c.55,0,1,.45,1,1v67.7c0,.55-.45,1-1,1Z"/><path d="m1295.1,402.73l-23.09,41.59c-.08.15-.13.32-.13.49v25.14c0,.55-.45,1-1,1h-7.57c-.55,0-1-.45-1-1v-25.14c0-.17-.04-.34-.13-.49l-23.19-41.59c-.37-.67.11-1.49.87-1.49h8.73c.37,0,.71.2.88.53l16.84,31.53c.38.71,1.39.7,1.77,0l16.74-31.52c.17-.33.51-.53.88-.53h8.52c.76,0,1.24.82.87,1.49Z"/><path d="m771.76,147.28c-21.54-21.76-47.98-32.8-78.62-32.8s-57.15,11.04-78.89,32.78c-21.54,21.54-32.46,47.98-32.46,78.59s10.91,57.12,32.49,78.93c21.74,21.51,48.28,32.42,78.87,32.42s57.05-10.9,78.59-32.46c21.76-21.74,32.78-48.3,32.78-78.89s-11.04-57.08-32.76-78.57Zm-40.45,116.8c-10.61,10.79-23.1,16.04-38.17,16.04s-27.53-5.25-38.23-16.13c-10.79-10.61-16.04-23.08-16.04-38.14s5.25-27.55,16.09-38.21c10.61-10.61,23.1-15.77,38.19-15.77s27.6,5.16,38.21,15.77c10.61,10.61,15.77,23.12,15.77,38.21s-5.16,27.58-15.81,38.23Z"/><path d="m395.04,269.98c-.95,0-1.88,0-2.81-.02-28.62-.63-52.44-10.86-72.82-31.24-21.04-21.02-31.26-45.77-31.26-75.63s10.23-54.27,31.26-75.31c21.04-21.04,45.77-31.27,75.63-31.27s54.27,10.23,75.31,31.27c21.04,21.04,31.26,45.68,31.26,75.31,0,25.7-7.58,47.62-23.11,66.64-1.2,1.47-.14,3.67,1.75,3.67h61.02c.88,0,1.7-.51,2.07-1.31,9.84-20.96,14.78-44.03,14.78-69,0-44.7-16.04-83.52-47.71-115.4C478.56,16.04,439.74,0,395.04,0s-83.75,16.04-115.42,47.71c-31.63,31.85-47.67,70.67-47.67,115.38s16.04,83.75,47.69,115.4c31.65,31.65,70.47,47.69,115.4,47.69h156.83c1.9,0,2.95-2.19,1.77-3.67l-41.23-51.67c-.43-.54-1.08-.85-1.77-.85h-115.6Z"/><path d="m157.08,305.55c-1.25,0-2.26-1.01-2.26-2.26v-99.57c0-13.8-4.72-25.22-14.42-34.93-9.7-9.7-21.13-14.42-34.93-14.42s-25.22,4.72-34.93,14.42c-9.91,9.74-14.71,21.15-14.71,34.93v99.57c0,1.25-1.01,2.26-2.26,2.26H5.9c-1.25,0-2.26-1.01-2.26-2.26v-99.57c0-27.98,9.99-52.16,29.69-71.86,19.89-19.89,44.16-29.98,72.15-29.98s52.18,10.09,71.88,30c19.86,19.65,29.95,43.84,29.95,71.83v99.57c0,1.25-1.01,2.26-2.26,2.26h-47.96Z"/><path d="m993.71,2.42v111.29c0,1.71-1.82,2.78-3.34,1.99-15.47-8.03-32.41-12.08-50.62-12.08-30.61,0-57.15,11.02-78.91,32.78-21.54,21.54-32.46,47.98-32.46,78.57s10.93,57.12,32.51,78.93c21.74,21.54,48.28,32.44,78.86,32.44h109.11c1.25,0,2.26-1.01,2.26-2.26V2.42c0-1.25-1.01-2.26-2.26-2.26h-52.89c-1.25,0-2.26,1.01-2.26,2.26Zm0,264.58c0,1.25-1.01,2.26-2.26,2.26h-51.69c-15.07,0-27.53-5.25-38.23-16.13-10.81-10.61-16.04-23.1-16.04-38.16s5.23-27.53,16.08-38.19c10.61-10.61,23.1-15.77,38.19-15.77s27.58,5.16,38.19,15.77c10.61,10.61,15.77,23.1,15.77,38.19v52.03Z"/><path d="m1178.36,243.67h121.8c1.25,0,2.26-1.01,2.26-2.26v-26.29c0-30.61-11.04-57.06-32.76-78.55-21.54-21.76-47.98-32.8-78.59-32.8s-57.17,11.02-78.91,32.78c-21.54,21.54-32.46,47.98-32.46,78.57s10.9,57.12,32.49,78.93c21.74,21.54,48.28,32.44,78.89,32.44h105.34c1.9,0,2.95-2.19,1.77-3.67l-41.93-52.55c-.43-.54-1.08-.85-1.77-.85h-63.41c-11.74,0-22.06-3.35-31.65-10.32-4.74-3.31-8.7-7.13-11.94-11.51-1.1-1.49,0-3.6,1.84-3.6h29.04v-.32Zm-29.1-57.08c-1.84,0-2.93-2.1-1.85-3.59,3.26-4.49,7.25-8.43,12.04-11.87,9.52-6.72,19.86-9.98,31.63-9.98s22.1,3.26,31.54,9.93c4.82,3.47,8.82,7.41,12.09,11.91,1.08,1.49-.01,3.59-1.85,3.59h-83.59Z"/></g></svg>